<svg
  xmlns="http://www.w3.org/2000/svg"
  width="144"
  height="144"
  version="1.1"
  viewBox="0 0 100 100"
  fill="#7D6AB9"
>
  <path
    d="m20.547 68.273-11.211 11.207v-26.395c0-7.0391 2.7383-13.656 7.7109-18.645l8.1211-8.1367v30.781c0 4.2266-1.6445 8.1992-4.6211 11.188zm26.371-26.379c2.9492-2.9492 4.6406-7.0312 4.6406-11.195v-26.379c-4.4141 1.5469-8.4688 4.0391-11.863 7.4336l-3.9727 3.9805v37.359l11.191-11.191s0.003907-0.003906 0.003907-0.007813zm46.84-7.7266c0-8.1172-3.0781-16.234-9.2305-22.418-5.9688-5.9648-13.93-9.25-22.414-9.25v28.199c0 1.2969-0.19531 2.5703-0.38672 3.8438 1.2734-0.1875 2.5469-0.375 3.8516-0.375zm-64.652 40.676-22.863 22.656h4.9023c5.5977 0 10.969-2.2227 14.93-6.1836l4.3711-4.3711h12.75c7.0352 0 13.656-2.7383 18.641-7.7109l8.1367-8.1211-30.781-0.003906c-3.6875 0.003906-7.2617 1.3867-10.086 3.7344zm25.281-25.484c-0.003907 0.003906-0.003907 0.003906-0.007813 0.003906l-11.191 11.191h37.359l3.9766-3.9688c0.003906-0.003907 0.011718-0.011719 0.015624-0.015626 3.4336-3.4492 5.8047-7.5273 7.3203-11.852l-26.277 0.003906c-4.2305 0-8.2109 1.6445-11.195 4.6367z"
    fill="#7D6AB9"
  ></path>
</svg>
